<svg width="190" height="40" viewBox="0 0 190 40" fill="none" xmlns="http://www.w3.org/2000/svg">
<g clip-path="url(#clip0_1407_143)">
<path d="M0 2.96163C0.00179434 2.66814 0.116624 2.3873 0.31942 2.18042C0.522215 1.97354 0.796504 1.85742 1.0824 1.85743H4.32961C4.61668 1.85743 4.89199 1.9745 5.09498 2.18288C5.29797 2.39127 5.41201 2.6739 5.41201 2.9686V22.9605C5.41201 23.2552 5.52605 23.5378 5.72904 23.7462C5.93203 23.9546 6.20734 24.0716 6.49441 24.0716H20.5679C20.855 24.0716 21.1303 23.9546 21.3333 23.7462C21.5363 23.5378 21.6503 23.2552 21.6503 22.9605V19.6316C21.6503 19.3369 21.5363 19.0543 21.3333 18.8459C21.1303 18.6375 20.855 18.5204 20.5679 18.5204H14.0735C13.2123 18.5204 12.3863 18.1692 11.7774 17.544C11.1684 16.9189 10.8263 16.071 10.8263 15.1869V5.19096C10.8263 4.30685 11.1684 3.45896 11.7774 2.8338C12.3863 2.20864 13.2123 1.85743 14.0735 1.85743H23.8106C24.6718 1.85743 25.4977 2.20864 26.1067 2.8338C26.7157 3.45896 27.0578 4.30685 27.0578 5.19096V26.3056C27.0578 27.1897 26.7157 28.0376 26.1067 28.6628C25.4977 29.2879 24.6718 29.6391 23.8106 29.6391H3.24721C2.38599 29.6391 1.56005 29.2879 0.951085 28.6628C0.342115 28.0376 0 27.1897 0 26.3056V2.96163ZM21.6503 8.51751C21.6503 8.22281 21.5363 7.94017 21.3333 7.73179C21.1303 7.5234 20.855 7.40633 20.5679 7.40633H16.2383V11.8534C16.2383 12.1481 16.3523 12.4307 16.5553 12.6391C16.7583 12.8475 17.0336 12.9645 17.3207 12.9645H21.6503V8.51751Z" fill="url(#paint0_linear_1407_143)"/>
<path d="M38.6251 -0.0023613V30.892H43.8333V-0.0023613H38.6251ZM69.4758 21.9236C70.2933 12.9505 65.8527 8.44071 58.756 8.44071C51.8675 8.44071 47.4768 13.2132 47.4768 19.843C47.4768 26.817 51.8245 31.4662 59.1432 31.4662C62.3723 31.4662 66.0316 30.3178 68.2711 27.9304L64.913 24.5272C63.7083 25.8081 61.1676 26.5612 59.2292 26.5612C55.5269 26.5612 53.2443 24.6155 52.9001 21.912L69.4758 21.9236ZM52.9862 17.4603C53.7606 14.6312 56.0862 13.2178 58.9281 13.2178C61.942 13.2178 64.0933 14.6312 64.4397 17.4603H52.9862ZM94.4028 30.8944V19.4479C94.4028 12.5972 90.3992 8.75454 85.4039 8.75454C82.7341 8.75454 80.5829 9.85874 78.4294 12.0253L78.0875 9.06371H73.3933V30.8967H78.6015V19.757C78.6015 16.4421 80.798 13.6572 84.0362 13.6572C87.3943 13.6572 89.1606 16.1771 89.1606 19.492V30.8944H94.4028ZM109.205 13.613C112.521 13.613 115.362 16.1701 115.362 19.9779C115.362 23.9112 112.521 26.3869 109.205 26.3869C105.847 26.3869 103.177 23.7787 103.177 19.9779C103.18 16.0376 105.85 13.613 109.205 13.613ZM115.709 -0.0023613V12.0648C114.461 9.80992 110.974 8.57787 108.734 8.57787C102.534 8.57787 97.9285 12.467 97.9285 19.9802C97.9285 27.1401 102.62 31.3825 108.863 31.3825C111.447 31.3825 114.072 30.4992 115.709 27.8956L116.053 30.9013H120.962V-0.0023613H115.709ZM142.323 11.3605C139.868 9.14973 137.373 8.4872 134.055 8.4872C130.181 8.4872 125.1 10.2562 125.1 15.2937C125.1 20.2429 129.88 21.7469 133.883 22.0561C136.897 22.2328 138.102 22.8511 138.102 24.3552C138.102 25.9452 136.25 27.0076 134.27 26.9634C131.902 26.9192 128.458 25.6384 126.952 23.9135L124.377 27.7561C127.477 31.071 130.835 31.6452 134.193 31.6452C140.264 31.6452 143.321 28.3303 143.321 24.4853C143.321 18.6947 138.24 17.7671 134.237 17.5114C131.519 17.3348 130.276 16.5397 130.276 15.124C130.276 13.7548 131.653 12.9575 134.15 12.9575C136.175 12.9575 137.896 13.4433 139.402 14.9032L142.323 11.3605ZM156.926 26.2102C153.353 26.2102 150.898 23.4207 150.898 20.022C150.898 16.6234 153.138 13.8339 156.926 13.8339C160.715 13.8339 162.954 16.6234 162.954 20.022C162.954 23.4207 160.499 26.2102 156.926 26.2102ZM168.681 40V9.10556H163.778L163.434 12.1113C161.799 9.67974 158.957 8.62436 156.546 8.62436C150.002 8.62436 145.654 13.6177 145.654 20.0267C145.654 26.3915 149.571 31.429 156.374 31.429C158.613 31.429 161.928 30.7316 163.434 28.3349V40.0023L168.681 40ZM173.289 9.10556V30.8944H178.543V19.4037C178.543 15.3821 181.083 13.878 183.839 13.878C185.562 13.878 186.556 14.3639 187.627 15.2914L189.996 10.6073C188.834 9.41474 186.724 8.52905 184.527 8.52905C182.374 8.52905 180.18 8.92656 178.543 11.6231L178.155 9.10324L173.289 9.10556Z" fill="#213F7D"/>
</g>
<defs>
<linearGradient id="paint0_linear_1407_143" x1="-2.25764" y1="41.8505" x2="27.1251" y2="-5.66936" gradientUnits="userSpaceOnUse">
<stop stop-color="#213F7D"/>
<stop offset="1" stop-color="#39CDCC"/>
</linearGradient>
<clipPath id="clip0_1407_143">
<rect width="190" height="40" fill="white"/>
</clipPath>
</defs>
</svg>
