<svg id="Layer_1" data-name="Layer 1" xmlns="http://www.w3.org/2000/svg" viewBox="0 0 400 300" width="406" height="306" class="illustration styles_illustrationTablet__1DWOa"><ellipse cx="201.39" cy="154.07" rx="119.02" ry="86.37" fill="#e6e6e6" opacity="0.24"></ellipse><path d="M180.19,99.32s27.25-4,70.22-61.53l15.07,119.57S219.17,128,187.6,139.68C187.6,139.68,170.5,121.38,180.19,99.32Z" fill="#F6BB47"></path><ellipse cx="268.71" cy="95.07" rx="34.15" ry="63.14" transform="translate(-8.22 27.61) rotate(-5.79)" fill="#24285b"></ellipse><path d="M154.71,143s-3.22,15.67,12.42,18.24,33.76,42.36,33.76,42.36l19.32-11.79S187,147.07,197,137.4Z" fill="#F6BB47"></path><path d="M154.71,143s-3.22,15.67,12.42,18.24,33.76,42.36,33.76,42.36l19.32-11.79S187,147.07,197,137.4Z" fill="#fff" opacity="0.46"></path><path d="M240.61,126.18l30.49-10.25-3.63-35.71-33.36,2.16S231.43,102.08,240.61,126.18Z" fill="#F6BB47"></path><path d="M240.61,126.18l30.49-10.25-3.63-35.71-33.36,2.16S231.43,102.08,240.61,126.18Z" opacity="0.18"></path><ellipse cx="269.29" cy="98.07" rx="9.71" ry="17.95" transform="translate(-8.52 27.68) rotate(-5.79)" fill="#F6BB47"></ellipse><path d="M183.42,98.51s-45,10.68-47.52,20.16,5.38,31,16.56,30.61,34.32-10.53,34.32-10.53S175.26,116.73,183.42,98.51Z" fill="#24285b"></path><polygon points="97.04 243.95 167.15 187.51 188.91 204.84 151.98 261.35 97.04 243.95" fill="#f4a28c"></polygon><path d="M200.31,155.64A13.53,13.53,0,0,1,214,164.08c4,9.61,3.85,15.88-6.69,19.35s-13.08-24.71-13.08-24.71Z" fill="#d68676"></path><path d="M190.42,138.28,199,156.77l9.06-5.12a5,5,0,0,0,2.19-6.32L206.79,137S197,135.42,190.42,138.28Z" fill="#24285b"></path><path d="M165.41,191.7s3.27-30.93,14.42-34.63,24.75,4,18.23,12.28-14.82-.77-14.82-.77l12.86,25.7-7.19,10.56Z" fill="#f4a28c"></path><path d="M196.76,143.43a4.13,4.13,0,0,1,4.89,0c1.7,1.23,3.57,3.34,2.75,6.31-1.41,5.11-10.34,11.87-14,9.12C187.32,156.54,191.79,147.09,196.76,143.43Z" fill="#f4a28c"></path><polygon points="89.25 241.98 154.43 263.43 186.78 216.11 152.57 191.94 89.25 241.98" fill="#ffd200"></polygon><polygon points="174.9 207.71 128.52 254.9 154.43 263.43 186.78 216.11 174.9 207.71" opacity="0.06"></polygon></svg>